<svg xmlns="http://www.w3.org/2000/svg" xmlns:xlink="http://www.w3.org/1999/xlink" version="1.1" style="" xml:space="preserve" width="488.9" height="488.9"><rect id="backgroundrect" width="100%" height="100%" x="0" y="0" fill="none" stroke="none"/>
















<g class="currentLayer" style=""><title>Layer 1</title><g id="svg_1" class="selected" fill="#ffffff" fill-opacity="1">
	<g id="svg_2" fill="#ffffff" fill-opacity="1">
		<g id="svg_3" fill="#ffffff" fill-opacity="1">
			<path d="M438.9,126.9L332.8,7.3c-4.2-5.2-9.4-7.3-15.6-7.3H65.5C54.1,0,44.7,9.4,44.7,20.8v447.3c0,11.4,9.4,20.8,20.8,20.8     h357.9c11.4,0,19.8-9.4,20.8-19.8V140.5C444.1,135.3,442.1,131.1,438.9,126.9z M337,73.6l40.7,46.1H337V73.6z M402.5,448.4     l-316.2,0V40.6h210.1v98.8c0,11.4,9.4,20.8,20.8,20.8h85.3V448.4z" id="svg_4" fill="#ffffff" fill-opacity="1"/>
			<path d="M136.2,235.1c0,11.4,9.4,20.8,20.8,20.8h174.8c11.4,0,20.8-9.4,20.8-20.8c0-11.4-9.4-20.8-20.8-20.8H157     C145.6,214.3,136.2,223.7,136.2,235.1z" id="svg_5" fill="#ffffff" fill-opacity="1"/>
			<path d="M331.8,343.3H157c-11.4,0-20.8,9.4-20.8,20.8c0,11.4,9.4,20.8,20.8,20.8h174.8c11.4,0,20.8-9.4,20.8-20.8     C352.6,352.7,343.2,343.3,331.8,343.3z" id="svg_6" fill="#ffffff" fill-opacity="1"/>
		</g>
	</g>
</g><g id="svg_7">
</g><g id="svg_8">
</g><g id="svg_9">
</g><g id="svg_10">
</g><g id="svg_11">
</g><g id="svg_12">
</g><g id="svg_13">
</g><g id="svg_14">
</g><g id="svg_15">
</g><g id="svg_16">
</g><g id="svg_17">
</g><g id="svg_18">
</g><g id="svg_19">
</g><g id="svg_20">
</g><g id="svg_21">
</g></g></svg>