<svg width="30" height="36" version="1.1" xmlns="http://www.w3.org/2000/svg" xmlns:xlink="http://www.w3.org/1999/xlink"><rect id="backgroundrect" width="100%" height="100%" x="0" y="0" fill="none" stroke="none"/>
    <!-- Uploaded to SVGRepo https://www.svgrepo.com -->
    <title>ic_fluent_share_ios_48_regular</title>
    <desc>Created with Sketch.</desc>
    
<g class="currentLayer" style=""><title>Layer 1</title><g id="ðŸ”-Product-Icons" stroke="none" stroke-width="1" fill="#ffffff" fill-rule="evenodd" class="selected" fill-opacity="1">
        <g id="ic_fluent_share_ios_48_regular" fill="#ffffff" fill-rule="nonzero" fill-opacity="1">
            <path d="M28.75,14.75 C29.39720916748047,14.75 29.929534912109375,15.241874694824219 29.993545532226562,15.872194290161133 L30,16 L30,30.75 C30,33.57700729370117 27.765552520751953,35.88213348388672 24.96640396118164,35.99562072753906 L24.75,36 L5.25,36 C2.422992706298828,36 0.11786842346191406,33.76555252075195 0.0043792724609375,30.96640396118164 L0,30.75 L0,16 C0,15.30964469909668 0.5596437454223633,14.75 1.25,14.75 C1.8972091674804688,14.75 2.4295339584350586,15.241874694824219 2.493546485900879,15.872194290161133 L2.5,16 L2.5,30.75 C2.5,32.21253204345703 3.641704559326172,33.40840530395508 5.082477569580078,33.49497985839844 L5.25,33.5 L24.75,33.5 C26.21253204345703,33.5 27.408405303955078,32.35829544067383 27.494979858398438,30.917522430419922 L27.5,30.75 L27.5,16 C27.5,15.30964469909668 28.059642791748047,14.75 28.75,14.75 zM6.090330123901367,8.144290924072266 L13.868505477905273,0.3661165237426758 C14.324115753173828,-0.08949518203735352 15.043937683105469,-0.11986923217773438 15.53477668762207,0.2749943733215332 L15.636272430419922,0.3661165237426758 L23.414447784423828,8.144290924072266 C23.902603149414062,8.6324462890625 23.902603149414062,9.42390251159668 23.414447784423828,9.912057876586914 C22.958833694458008,10.367670059204102 22.239013671875,10.39804458618164 21.7481746673584,10.003179550170898 L21.646678924560547,9.912057876586914 L16,4.265000343322754 L16,24.5 C16,25.14720916748047 15.508125305175781,25.679533004760742 14.877805709838867,25.743545532226562 L14.75,25.75 C14.102790832519531,25.75 13.570466995239258,25.25812530517578 13.506454467773438,24.627805709838867 L13.5,24.5 L13.5,4.269000053405762 L7.858097076416016,9.912057876586914 C7.402484893798828,10.367670059204102 6.68266487121582,10.39804458618164 6.191825866699219,10.003179550170898 L6.090330123901367,9.912057876586914 C5.63471794128418,9.456446647644043 5.604344367980957,8.736625671386719 5.999207496643066,8.245786666870117 L6.090330123901367,8.144290924072266 L13.868505477905273,0.3661165237426758 L6.090330123901367,8.144290924072266 z" id="ðŸŽ¨-Color" fill="#ffffff" fill-opacity="1"/>
        </g>
    </g></g></svg>